<svg width="43" height="43" viewBox="0 0 43 43" fill="none" xmlns="http://www.w3.org/2000/svg">
<g clip-path="url(#clip0_5_578)">
<path fill-rule="evenodd" clip-rule="evenodd" d="M5.00149 1.35589C5.46577 0.892312 6.02327 0.532692 6.63705 0.300867C7.25083 0.0690423 7.90686 -0.0296942 8.56169 0.0112009C9.21651 0.052096 9.85517 0.231689 10.4353 0.538078C11.0155 0.844467 11.5239 1.27066 11.9269 1.7884L16.6898 7.9072C17.5628 9.02959 17.8706 10.4916 17.5256 11.8714L16.0742 17.6824C15.9992 17.9834 16.0032 18.2986 16.086 18.5976C16.1687 18.8965 16.3274 19.169 16.5465 19.3886L23.066 25.908C23.2858 26.1276 23.5587 26.2865 23.8582 26.3693C24.1576 26.452 24.4734 26.4559 24.7748 26.3803L30.5831 24.9289C31.264 24.7587 31.9747 24.7454 32.6615 24.8902C33.3483 25.035 33.9931 25.3341 34.5474 25.7647L40.6661 30.525C42.8658 32.2364 43.0675 35.4869 41.0987 37.4531L38.355 40.1967C36.3915 42.1602 33.4568 43.0226 30.7211 42.0594C23.7192 39.5958 17.3619 35.5873 12.1206 30.3313C6.86496 25.0908 2.85648 18.7344 0.392491 11.7334C-0.568048 9.00041 0.294315 6.06307 2.25785 4.09953L5.00149 1.35589Z" fill="white"/>
</g>
<defs>
<clipPath id="clip0_5_578">
<rect width="42.4548" height="42.4548" fill="white"/>
</clipPath>
</defs>
</svg>
