<svg width="50" height="49" viewBox="0 0 50 49" fill="none" xmlns="http://www.w3.org/2000/svg">
<g clip-path="url(#clip0_5_575)">
<path d="M9.80313 0.0124512C4.41728 0.0124512 0.00927734 4.33219 0.00927734 9.61042V39.3946C0.00927734 44.6728 4.41718 48.991 9.80313 48.991H40.1952C45.5811 48.991 49.9874 44.6728 49.9874 39.3946V9.61042C49.9874 4.33229 45.5811 0.0124512 40.1952 0.0124512H9.80313ZM12.2664 8.0949C14.8488 8.0949 16.4395 9.7563 16.4886 11.9402C16.4886 14.0758 14.8487 15.7839 12.2165 15.7839H12.168C9.63478 15.7839 7.99743 14.0759 7.99743 11.9402C7.99743 9.75635 9.68433 8.0949 12.2664 8.0949H12.2664ZM34.5204 18.3021C39.4869 18.3021 43.2099 21.4833 43.2099 28.3195V41.0815H35.6623V29.1751C35.6623 26.1832 34.5699 24.1419 31.8385 24.1419C29.7533 24.1419 28.5104 25.5177 27.9647 26.8468C27.7653 27.3223 27.7163 27.9864 27.7163 28.6516V41.0815H20.1687C20.1687 41.0815 20.2677 20.9124 20.1687 18.824H27.7179V21.9759C28.7209 20.4594 30.515 18.302 34.5204 18.302V18.3021ZM8.44263 18.8257H15.9903V41.0816H8.44263V18.8257Z" fill="white"/>
</g>
<defs>
<clipPath id="clip0_5_575">
<rect width="50" height="49" fill="white"/>
</clipPath>
</defs>
</svg>
