<svg width="53" height="53" viewBox="0 0 53 53" fill="none" xmlns="http://www.w3.org/2000/svg">
<path d="M10.2476 10.5918H45.3326C48.6425 10.5918 50.3107 12.1541 50.3107 15.3316V37.6271C50.3107 40.7781 48.6425 42.3669 45.3326 42.3669H10.2476C6.93772 42.3669 5.26953 40.7781 5.26953 37.6271V15.3316C5.26953 12.1541 6.93772 10.5918 10.2476 10.5918ZM27.7769 33.3639L45.6239 18.7209C46.2594 18.1913 46.7625 16.9733 45.9681 15.8876C45.2002 14.802 43.7968 14.7755 42.87 15.4375L27.7769 25.6585L12.7102 15.4375C11.7834 14.7755 10.38 14.802 9.61212 15.8876C8.81775 16.9733 9.32085 18.1913 9.95635 18.7209L27.7769 33.3639Z" fill="white"/>
</svg>
