<svg height="400" viewBox="0 0 400 400.00001" width="400" xmlns="http://www.w3.org/2000/svg"><path d="m55.925394 652.36218c-30.393352 0-55.29942992 24.90804-55.29942994 55.30138.00000002 30.39336 24.90607794 55.29943 55.29942994 55.29943 5.173306 0 10.181454-.73848 14.941042-2.08588l13.444984 22.57367c-29.876428 22.0478-49.30739 57.48755-49.30739 97.35113 0 66.64002 54.290612 120.93059 120.93065 120.93059 34.5698 0 65.811-14.61461 87.87871-37.97949l20.46044 15.44103c-1.93494 5.6137-3.00189 11.62111-3.00189 17.86675 0 30.39331 24.90608 55.30131 55.29943 55.30131 30.39336 0 55.30139-24.908 55.30139-55.30131 0-30.39336-24.90803-55.29943-55.30139-55.29943-15.15619 0-28.94669 6.19466-38.96584 16.17344l-18.57767-14.02115c11.30496-18.38831 17.8355-40.00592 17.8355-63.11174 0-19.44442-4.62952-37.8337-12.83171-54.13344l45.97152-33.68277c9.41166 7.40845 21.24826 11.85518 34.07144 11.85518 30.39336 0 55.29943-24.90609 55.29943-55.29943 0-30.39336-24.90607-55.30139-55.29943-55.30139s-55.30139 24.90803-55.30138 55.30139c0 8.57289 1.9821 16.7081 5.50963 23.97207l-43.76065 32.06172c-22.18189-27.82655-56.34936-45.70397-94.58753-45.70397-17.8512 0-34.81398 3.89923-50.08667 10.8845l-13.081719-21.9643c11.307989-10.14693 18.458539-24.84746 18.458539-41.12791 0-30.39334-24.906082-55.30138-55.299436-55.30138zm0 24.99939c16.88268 0 30.300042 13.41932 30.300042 30.30199 0 16.88268-13.417362 30.30004-30.300042 30.30004-16.882678 0-30.300041-13.41736-30.300041-30.30004 0-16.88267 13.417363-30.30199 30.300041-30.30199zm288.149216 41.87788c16.88268 0 30.30004 13.41932 30.30004 30.302 0 16.88267-13.41736 30.30004-30.30004 30.30004s-30.30199-13.41737-30.30199-30.30004c0-16.88268 13.41931-30.302 30.30199-30.302zm-188.13993 65.63121c53.12935 0 95.92929 42.8019 95.92929 95.93125s-42.79994 95.93126-95.92929 95.93126c-53.12936 0-95.93126-42.80191-95.93126-95.93126s42.8019-95.93125 95.93126-95.93125zm-.83006 25.24744c-25.44286-.3999-45.66106 29.20262-35.43859 52.66472 2.89454 7.52249 8.26285 14.01893 14.95081 18.48588-23.02566 10.11073-36.703153 35.46616-36.337011 60.07275-.05902 4.80544-.511373 9.75352 4.099511 9.6111 34.32375-.69828 76.17032.1505 110.49731-.0762 4.49067-27.31468-9.21096-58.03472-35.11048-69.52369 18.1538-12.01297 23.32449-40.37216 8.3455-56.90876-7.48953-9.09402-19.19064-14.64784-31.00705-14.32582zm.65428 23.65371c.53101-.007 1.06852.0172 1.60933.0742 13.02643.59668 19.17674 20.56949 7.50177 27.56768-9.21009 6.54539-24.95129-.23815-23.88027-12.38055.11879-8.0054 6.80405-15.15142 14.76917-15.26135zm1.00388 66.78743c14.92636.23653 27.49301 12.78709 31.24923 26.5306-21.27876-.0222-42.55775.0588-63.83633-.0605 3.92221-13.76741 16.13183-26.32073 31.13596-26.45443.48619-.0184.96965-.0233 1.45114-.0156zm159.80859 66.20151c16.88268 0 30.302 13.41736 30.302 30.30004 0 16.88271-13.41932 30.30201-30.302 30.30201s-30.30004-13.4193-30.30004-30.30201c0-16.88268 13.41736-30.30004 30.30004-30.30004z" transform="translate(0 -652.36216)" fill="#FFFFFF"/></svg>
