<svg viewBox="0 0 1024 1045.62" xmlns="http://www.w3.org/2000/svg">
  <path d="M512 .002c282.77 0 512 229.23 512 512s-229.23 512-512 512-512-229.23-512-512 229.23-512 512-512zm0 934.957c233.592 0 422.957-189.365 422.957-422.958S745.593 89.045 512 89.045c-233.592 0-422.957 189.364-422.957 422.957.278 233.48 189.476 422.678 422.93 422.956h.026zm127.332-251.104h-339.7v-89.043h339.7c69.217 0 125.33-56.112 125.33-125.33s-56.113-125.328-125.33-125.328h-339.7v-89.043h339.7c118.394 0 214.372 95.978 214.372 214.372s-95.978 214.372-214.372 214.372zM437.738 840.84l-200.97-201.505 200.97-201.505 63.043 62.865-138.284 138.64L500.78 777.978z" fill="#fff"/>
</svg>
