<svg fill="none" height="24" viewBox="0 0 24 24" width="24" xmlns="http://www.w3.org/2000/svg"><path d="m5.5 8.75732c0-1.79897 1.567-3.25732 3.5-3.25732s3.5 1.45835 3.5 3.25732c0 1.78488-1.1171 3.86768-2.85997 4.61248-.40629.1736-.87377.1736-1.28006 0-1.74289-.7448-2.85997-2.8276-2.85997-4.61248z" stroke="#FFFFFF" stroke-width="1.5"/><path d="m14.0004 13.9993 6.5 6.5m-6.5-6.5-7.60587 7.606m7.60587-7.606 1.9996-1.9995m5.6072-5.60722-2.6072 2.6072" stroke="#FFFFFF" stroke-linecap="round" stroke-width="1.5"/><path d="m10 9c0 .55228-.44772 1-1 1s-1-.44772-1-1 .44772-1 1-1 1 .44772 1 1z" fill="#FFFFFF"/><path d="m2 12c0 4.714 0 7.0711 1.46447 8.5355 1.46446 1.4645 3.82148 1.4645 8.53553 1.4645 4.714 0 7.0711 0 8.5355-1.4645 1.4645-1.4644 1.4645-3.8215 1.4645-8.5355 0-4.71405 0-7.07107-1.4645-8.53553-1.4644-1.46447-3.8215-1.46447-8.5355-1.46447-4.71405 0-7.07107 0-8.53553 1.46447-.97374.97374-1.30003 2.34208-1.40937 4.53553" stroke="#FFFFFF" stroke-linecap="round" stroke-width="1.5"/></svg>
