<svg viewBox="0 0 1024 1024" xmlns="http://www.w3.org/2000/svg">
  <path d="M338.446 90.78v840.686" fill="#FFFFFF"/>
  <path d="M90.852 683.503H931.31" fill="#FFFFFF"/>
  <path d="M677.892 90.78v840.686" fill="#FFFFFF"/>
  <path d="M90.853 344.056h836.755" fill="#FFFFFF"/>
  <path d="M529.055 453.041l116.22 116.22" fill="#FFFFFF"/>
  <path d="M530.573 567.744l113.185-113.186" fill="#FFFFFF"/>
  <path d="M864.628 9.374l116.22 116.22" fill="#FFFFFF"/>
  <path d="M866.148 124.078l113.185-113.186" fill="#FFFFFF"/>
  <path d="M113.61 796.646l116.22 116.22" fill="#FFFFFF"/>
  <path d="M115.127 911.35l113.185-113.185" fill="#FFFFFF"/>
  <path d="M329.917 90.78h16.706v840.686h-16.705V90.78zm340.778 0h15.034v840.688h-15.035V90.778zM90.852 672.353H931.31v11.15H90.852v-11.15zm0-333.87H931.31v11.15H90.852v-11.15zm817.43-118.044l-8.23 8.275-114.905-114.288 8.23-8.275-115.017 114.288zm-115.17 8.083l-8.192-8.314 115.442-113.757 8.192 8.314-115.442 113.756zM572.548 562.886l-8.23 8.275-114.905-114.287 8.23-8.275-115.017 114.287zm-115.2 8.083l-8.192-8.315 115.44-113.755 8.193 8.314-115.442 113.756zM233.324 907.71l-8.23 8.275-113.926-114.831 8.23-8.276 113.926 114.832zm-115.233 8.083l-8.19-8.314 115.44-113.755 8.193 8.314-115.442 113.756zM511.166 90.78c-44.662 0-80.868 34.342-80.868 76.707s36.206 76.708 80.868 76.708 80.868-34.343 80.868-76.708-36.206-76.708-80.868-76.708zm0 141.778c-37.886 0-68.6-29.133-68.6-65.072s30.713-65.072 68.6-65.072 68.6 29.133 68.6 65.072-30.713 65.072-68.6 65.072zM171.72 90.778c-44.662 0-80.868 34.344-80.868 76.71s36.206 76.707 80.868 76.707 80.868-34.343 80.868-76.708S216.382 90.78 171.72 90.78zm0 141.78c-37.886 0-68.6-29.133-68.6-65.072s30.713-65.072 68.6-65.072 68.6 29.133 68.6 65.072-30.713 65.072-68.6 65.072zm675.02 200.668c-44.663 0-80.87 34.343-80.87 76.708s36.207 76.708 80.87 76.708c44.66 0 80.867-34.343 80.867-76.708s-36.206-76.708-80.868-76.708zm0 141.78c-37.887 0-68.6-29.134-68.6-65.073s30.712-65.072 68.6-65.072c37.885 0 68.6 29.134 68.6 65.073 0 35.937-30.714 65.072-68.6 65.072zM509.493 778.05c-44.662 0-80.868 34.344-80.868 76.71s36.206 76.707 80.868 76.707 80.868-34.343 80.868-76.708-36.206-76.71-80.868-76.71zm0 141.78c-37.886 0-68.6-29.134-68.6-65.073s30.713-65.072 68.6-65.072 68.6 29.133 68.6 65.072-30.713 65.072-68.6 65.072z" fill="#FFFFFF"/>
</svg>